<?xml version="1.0" encoding="UTF-8" standalone="no"?> <svg width="64" height="64" viewBox="0 0 64 64" fill="none" xmlns="http://www.w3.org/2000/svg">
<path d="M20 25L23 17H16L12 25H16H20Z" fill="#FF9811"/>
<path d="M28 25L29 17H23L20 25H28Z" fill="#FF6243"/>
<path d="M36 25L35 17H29L28 25H36Z" fill="#FF9811"/>
<path d="M44 25L41 17H35L36 25H44Z" fill="#FF6243"/>
<path d="M44 25H52L48 17H41L44 25Z" fill="#FF9811"/>
<path d="M56 31V61H8V31C9.06087 31 10.0783 30.5786 10.8284 29.8284C11.5786 29.0783 12 28.0609 12 27C12 28.0609 12.4214 29.0783 13.1716 29.8284C13.9217 30.5786 14.9391 31 16 31C17.0609 31 18.0783 30.5786 18.8284 29.8284C19.5786 29.0783 20 28.0609 20 27C20 28.0609 20.4214 29.0783 21.1716 29.8284C21.9217 30.5786 22.9391 31 24 31C25.0609 31 26.0783 30.5786 26.8284 29.8284C27.5786 29.0783 28 28.0609 28 27C28 28.0609 28.4214 29.0783 29.1716 29.8284C29.9217 30.5786 30.9391 31 32 31C33.0609 31 34.0783 30.5786 34.8284 29.8284C35.5786 29.0783 36 28.0609 36 27C36 28.0609 36.4214 29.0783 37.1716 29.8284C37.9217 30.5786 38.9391 31 40 31C41.0609 31 42.0783 30.5786 42.8284 29.8284C43.5786 29.0783 44 28.0609 44 27C44 28.0609 44.4214 29.0783 45.1716 29.8284C45.9217 30.5786 46.9391 31 48 31C49.0609 31 50.0783 30.5786 50.8284 29.8284C51.5786 29.0783 52 28.0609 52 27C52 28.0609 52.4214 29.0783 53.1716 29.8284C53.9217 30.5786 54.9391 31 56 31Z" fill="#57A4FF"/>
<path d="M52 27C52 28.0609 51.5786 29.0783 50.8284 29.8284C50.0783 30.5786 49.0609 31 48 31C46.9391 31 45.9217 30.5786 45.1716 29.8284C44.4214 29.0783 44 28.0609 44 27C44 28.0609 43.5786 29.0783 42.8284 29.8284C42.0783 30.5786 41.0609 31 40 31C38.9391 31 37.9217 30.5786 37.1716 29.8284C36.4214 29.0783 36 28.0609 36 27C36 28.0609 35.5786 29.0783 34.8284 29.8284C34.0783 30.5786 33.0609 31 32 31C30.9391 31 29.9217 30.5786 29.1716 29.8284C28.4214 29.0783 28 28.0609 28 27C28 28.0609 27.5786 29.0783 26.8284 29.8284C26.0783 30.5786 25.0609 31 24 31C22.9391 31 21.9217 30.5786 21.1716 29.8284C20.4214 29.0783 20 28.0609 20 27C20 28.0609 19.5786 29.0783 18.8284 29.8284C18.0783 30.5786 17.0609 31 16 31C14.9391 31 13.9217 30.5786 13.1716 29.8284C12.4214 29.0783 12 28.0609 12 27C12 28.0609 11.5786 29.0783 10.8284 29.8284C10.0783 30.5786 9.06087 31 8 31V33C9.06087 33 10.0783 32.5786 10.8284 31.8284C11.5786 31.0783 12 30.0609 12 29C12 30.0609 12.4214 31.0783 13.1716 31.8284C13.9217 32.5786 14.9391 33 16 33C17.0609 33 18.0783 32.5786 18.8284 31.8284C19.5786 31.0783 20 30.0609 20 29C20 30.0609 20.4214 31.0783 21.1716 31.8284C21.9217 32.5786 22.9391 33 24 33C25.0609 33 26.0783 32.5786 26.8284 31.8284C27.5786 31.0783 28 30.0609 28 29C28 30.0609 28.4214 31.0783 29.1716 31.8284C29.9217 32.5786 30.9391 33 32 33C33.0609 33 34.0783 32.5786 34.8284 31.8284C35.5786 31.0783 36 30.0609 36 29C36 30.0609 36.4214 31.0783 37.1716 31.8284C37.9217 32.5786 38.9391 33 40 33C41.0609 33 42.0783 32.5786 42.8284 31.8284C43.5786 31.0783 44 30.0609 44 29C44 30.0609 44.4214 31.0783 45.1716 31.8284C45.9217 32.5786 46.9391 33 48 33C49.0609 33 50.0783 32.5786 50.8284 31.8284C51.5786 31.0783 52 30.0609 52 29C52 30.0609 52.4214 31.0783 53.1716 31.8284C53.9217 32.5786 54.9391 33 56 33V31C54.9391 31 53.9217 30.5786 53.1716 29.8284C52.4214 29.0783 52 28.0609 52 27Z" fill="#2488FF"/>
<path d="M12 27V25H4V27C4 28.0609 4.42143 29.0783 5.17157 29.8284C5.92172 30.5786 6.93913 31 8 31C9.06087 31 10.0783 30.5786 10.8284 29.8284C11.5786 29.0783 12 28.0609 12 27Z" fill="#FF5023"/>
<path d="M16 17H9L4 25H12L16 17Z" fill="#FF6243"/>
<path d="M55 10V17H9V10C9.00158 9.47005 9.2128 8.96227 9.58753 8.58753C9.96227 8.2128 10.4701 8.00158 11 8H53C53.5299 8.00158 54.0377 8.2128 54.4125 8.58753C54.7872 8.96227 54.9984 9.47005 55 10V10Z" fill="#FFCD00"/>
<path d="M52 27C52 28.0609 52.4214 29.0783 53.1716 29.8284C53.9217 30.5786 54.9391 31 56 31C57.0609 31 58.0783 30.5786 58.8284 29.8284C59.5786 29.0783 60 28.0609 60 27V25H52V27Z" fill="#FF5023"/>
<path d="M48 17L52 25H60L55 17H48Z" fill="#FF6243"/>
<path d="M16 25H12V27C12 28.0609 12.4214 29.0783 13.1716 29.8284C13.9217 30.5786 14.9391 31 16 31C17.0609 31 18.0783 30.5786 18.8284 29.8284C19.5786 29.0783 20 28.0609 20 27V25H16Z" fill="#EE8700"/>
<path d="M20 25V27C20 28.0609 20.4214 29.0783 21.1716 29.8284C21.9217 30.5786 22.9391 31 24 31C25.0609 31 26.0783 30.5786 26.8284 29.8284C27.5786 29.0783 28 28.0609 28 27V25H20Z" fill="#FF5023"/>
<path d="M28 25V27C28 28.0609 28.4214 29.0783 29.1716 29.8284C29.9217 30.5786 30.9391 31 32 31C33.0609 31 34.0783 30.5786 34.8284 29.8284C35.5786 29.0783 36 28.0609 36 27V25H28Z" fill="#EE8700"/>
<path d="M36 25V27C36 28.0609 36.4214 29.0783 37.1716 29.8284C37.9217 30.5786 38.9391 31 40 31C41.0609 31 42.0783 30.5786 42.8284 29.8284C43.5786 29.0783 44 28.0609 44 27V25H36Z" fill="#FF5023"/>
<path d="M44 27C44 28.0609 44.4214 29.0783 45.1716 29.8284C45.9217 30.5786 46.9391 31 48 31C49.0609 31 50.0783 30.5786 50.8284 29.8284C51.5786 29.0783 52 28.0609 52 27V25H44V27Z" fill="#EE8700"/>
<path d="M26 37H14C13.4696 37 12.9609 37.2107 12.5858 37.5858C12.2107 37.9609 12 38.4696 12 39V61H28V39C28 38.4696 27.7893 37.9609 27.4142 37.5858C27.0391 37.2107 26.5304 37 26 37Z" fill="#7ED63E"/>
<path d="M50 39H34C32.8954 39 32 39.8954 32 41V51C32 52.1046 32.8954 53 34 53H50C51.1046 53 52 52.1046 52 51V41C52 39.8954 51.1046 39 50 39Z" fill="#FFCD00"/>
<path d="M46 12V8V3H18V8V12H46Z" fill="#ED1C24"/>
<path d="M25 47C24.7348 47 24.4804 47.1054 24.2929 47.2929C24.1054 47.4804 24 47.7348 24 48V49C24 49.2652 24.1054 49.5196 24.2929 49.7071C24.4804 49.8946 24.7348 50 25 50C25.2652 50 25.5196 49.8946 25.7071 49.7071C25.8946 49.5196 26 49.2652 26 49V48C26 47.7348 25.8946 47.4804 25.7071 47.2929C25.5196 47.1054 25.2652 47 25 47Z" fill="#5EAC24"/>
</svg>
